<svg width="1083" height="433" viewBox="0 0 1083 433" fill="none" xmlns="http://www.w3.org/2000/svg">
<path d="M429.346 378.11V125.753H461.067V154.302C466.706 145.843 474.695 138.324 485.033 131.745C495.372 124.931 508.53 121.524 524.508 121.524C541.661 121.524 556.699 125.518 569.622 133.507C582.546 141.496 592.649 152.422 599.933 166.286C607.217 180.149 610.859 195.892 610.859 213.514C610.859 231.137 607.217 246.88 599.933 260.743C592.649 274.371 582.546 285.18 569.622 293.169C556.699 300.923 541.544 304.8 524.156 304.8C509.823 304.8 497.252 301.98 486.443 296.341C475.635 290.467 467.176 282.36 461.067 272.022V378.11H429.346ZM519.926 277.309C531.44 277.309 541.544 274.606 550.237 269.202C559.166 263.798 566.098 256.279 571.032 246.645C576.201 237.011 578.786 225.85 578.786 213.162C578.786 200.474 576.201 189.313 571.032 179.679C566.098 170.045 559.166 162.526 550.237 157.122C541.544 151.717 531.44 149.015 519.926 149.015C508.648 149.015 498.544 151.717 489.615 157.122C480.921 162.526 474.107 170.045 469.173 179.679C464.239 189.313 461.771 200.474 461.771 213.162C461.771 225.85 464.239 237.011 469.173 246.645C474.107 256.279 480.921 263.798 489.615 269.202C498.544 274.606 508.648 277.309 519.926 277.309Z" fill="black"/>
<path d="M635.729 300.571V125.753H667.45V153.245C671.445 144.081 676.849 137.032 683.663 132.098C690.477 126.928 698.819 124.344 708.687 124.344H734.769V153.95H705.515C697.996 153.95 691.3 156.064 685.425 160.294C679.786 164.523 675.322 171.337 672.032 180.736C668.978 189.9 667.45 202.118 667.45 217.391V300.571H635.729Z" fill="black"/>
<path d="M825.369 304.8C808.216 304.8 792.826 301.04 779.197 293.521C765.569 285.767 754.878 275.076 747.124 261.448C739.37 247.585 735.493 231.49 735.493 213.162C735.493 194.599 739.37 178.504 747.124 164.876C755.113 151.248 765.922 140.674 779.55 133.155C793.413 125.401 808.921 121.524 826.074 121.524C843.227 121.524 858.617 125.401 872.245 133.155C885.874 140.674 896.565 151.248 904.319 164.876C912.073 178.504 915.95 194.599 915.95 213.162C915.95 231.49 911.955 247.585 903.966 261.448C896.212 275.076 885.521 285.767 871.893 293.521C858.265 301.04 842.757 304.8 825.369 304.8ZM825.369 277.661C835.943 277.661 845.576 275.311 854.27 270.612C863.199 265.678 870.248 258.394 875.417 248.76C880.822 239.126 883.524 227.26 883.524 213.162C883.524 198.829 880.822 186.963 875.417 177.564C870.248 167.93 863.316 160.764 854.623 156.064C845.929 151.13 836.412 148.663 826.074 148.663C815.735 148.663 806.101 151.13 797.173 156.064C788.479 160.999 781.43 168.165 776.025 177.564C770.621 186.963 767.919 198.829 767.919 213.162C767.919 227.26 770.504 239.126 775.673 248.76C781.077 258.394 788.126 265.678 796.82 270.612C805.514 275.311 815.03 277.661 825.369 277.661Z" fill="black"/>
<path d="M917.726 300.571L978.7 213.162L917.726 125.753H951.914L1000.2 196.597L1048.84 125.753H1082.67L1021.7 213.162L1082.67 300.571H1048.84L1000.2 229.727L951.914 300.571H917.726Z" fill="black"/>
<path d="M311.03 141.377C282.755 144.77 216.025 0 216.025 0C216.025 0 268.052 130.067 247.693 153.819C227.335 177.57 0 156.081 0 156.081C0 156.081 230.728 185.487 239.776 211.501C248.824 237.514 72.3852 432.049 72.3852 432.049C72.3852 432.049 263.527 234.121 289.541 234.121C315.554 234.121 335.913 277.1 335.913 277.1C335.913 277.1 322.34 237.514 330.258 217.156C338.175 196.797 396.988 201.321 396.988 201.321C396.988 201.321 349.485 194.535 342.699 171.915C335.913 149.295 436.573 40.7167 436.573 40.7167C436.573 40.7167 339.306 137.984 311.03 141.377Z" fill="black"/>
</svg>
